<?xml version="1.0" encoding="utf-8"?>
<!-- Generator: Adobe Illustrator 22.0.1, SVG Export Plug-In . SVG Version: 6.00 Build 0)  -->
<svg version="1.1" id="Layer_1" xmlns="http://www.w3.org/2000/svg" xmlns:xlink="http://www.w3.org/1999/xlink" x="0px" y="0px"
	 viewBox="0 0 48 48" style="enable-background:new 0 0 48 48;" xml:space="preserve">
<style type="text/css">
	.st0{fill:#BE9FE1;}
</style>
<path class="st0" d="M16.5,34.1l7.5-7.5l7.6,7.5l2.6-2.5L26.6,24l7.6-7.6l-2.6-2.5L24,21.4l-7.5-7.5l-2.6,2.5l7.6,7.6l-7.6,7.5
	L16.5,34.1z M24,44.8c-2.8,0-5.5-0.6-8.1-1.7c-2.5-1.1-4.7-2.6-6.6-4.5c-1.9-1.9-3.4-4.1-4.5-6.6c-1.1-2.5-1.7-5.2-1.7-8.1
	c0-2.9,0.6-5.6,1.7-8.1c1.1-2.5,2.6-4.7,4.5-6.6c1.9-1.9,4.1-3.4,6.6-4.4c2.5-1.1,5.2-1.6,8-1.6c2.9,0,5.6,0.5,8.1,1.6
	c2.5,1.1,4.7,2.6,6.6,4.5c1.9,1.9,3.4,4.1,4.4,6.6c1.1,2.5,1.6,5.2,1.6,8.1c0,2.8-0.5,5.5-1.6,8c-1.1,2.5-2.6,4.7-4.4,6.6
	c-1.9,1.9-4.1,3.4-6.6,4.5S26.9,44.8,24,44.8z M24,41.2c4.8,0,8.8-1.7,12.1-5c3.3-3.4,5-7.4,5-12.1c0-4.8-1.7-8.8-5-12.1
	c-3.3-3.3-7.4-5-12.1-5c-4.7,0-8.8,1.7-12.1,5c-3.4,3.3-5,7.4-5,12.1c0,4.7,1.7,8.8,5,12.1C15.2,39.5,19.3,41.2,24,41.2z"/>
</svg>
