<?xml version="1.0" encoding="utf-8"?>
<!-- Generator: Adobe Illustrator 22.0.1, SVG Export Plug-In . SVG Version: 6.00 Build 0)  -->
<svg version="1.1" id="Layer_1" xmlns="http://www.w3.org/2000/svg" xmlns:xlink="http://www.w3.org/1999/xlink" x="0px" y="0px"
	 viewBox="0 0 48 48" style="enable-background:new 0 0 48 48;" xml:space="preserve">
<style type="text/css">
	.st0{fill:#FFFFFF;}
</style>
<path class="st0" d="M24,25.4L6.8,14.2v22.9h19.9v3.7H6.8c-1,0-1.8-0.4-2.5-1.1c-0.7-0.7-1.1-1.6-1.1-2.5V10.9c0-1,0.4-1.8,1.1-2.5
	C5,7.6,5.9,7.2,6.8,7.2h34.3c1,0,1.8,0.4,2.5,1.1s1.1,1.6,1.1,2.5V27h-3.6V14.2L24,25.4z M24,21.9l17.2-11H6.8L24,21.9z M39.2,46.7
	l-2.5-2.6l3.3-3.3H29.7v-3.7H40l-3.4-3.4l2.6-2.6l7.8,7.8L39.2,46.7z M6.8,14.2v25.4V27v0.1V10.9V14.2z"/>
</svg>
