<?xml version="1.0" encoding="utf-8"?>
<!-- Generator: Adobe Illustrator 22.0.1, SVG Export Plug-In . SVG Version: 6.00 Build 0)  -->
<svg version="1.1" id="Layer_1" xmlns="http://www.w3.org/2000/svg" xmlns:xlink="http://www.w3.org/1999/xlink" x="0px" y="0px"
	 viewBox="0 0 48 48" style="enable-background:new 0 0 48 48;" xml:space="preserve">
<style type="text/css">
	.st0{fill:#FFFFFF;}
</style>
<path class="st0" d="M25.1,34.8l18.3-18.2L39.8,13L21.6,31.3L25.1,34.8z M10.6,37.8C8,37.6,5.8,37,3.9,36S1,33.1,1,30.5
	c0-2.1,0.9-3.8,2.6-5.1s4.2-2.1,7.3-2.4c1.4-0.1,2.4-0.3,3.1-0.7c0.7-0.3,1-0.8,1-1.4c0-0.9-0.5-1.5-1.4-2c-1-0.5-2.6-0.8-4.9-1.1
	L9,14.2c3.1,0.3,5.5,1,7.2,2.2c1.6,1.1,2.5,2.6,2.5,4.5c0,1.6-0.7,2.9-2,4c-1.3,1-3.1,1.6-5.4,1.8c-2.2,0.2-3.8,0.6-4.9,1.2
	s-1.7,1.5-1.7,2.7c0,1,0.5,1.9,1.6,2.5s2.6,1,4.6,1.1L10.6,37.8z M26.3,38.9l-8.8-8.8L38,9.7C38.5,9.2,39.1,9,39.8,9
	s1.3,0.3,1.8,0.8l5.1,5.1c0.5,0.5,0.8,1.2,0.8,1.9c0,0.7-0.3,1.3-0.8,1.8L26.3,38.9z M18.2,40.5c-0.7,0.2-1.3,0-1.8-0.5
	s-0.7-1.1-0.6-1.8l1.7-8.1l8.8,8.8L18.2,40.5z"/>
</svg>
