<?xml version="1.0" encoding="utf-8"?>
<!-- Generator: Adobe Illustrator 22.0.1, SVG Export Plug-In . SVG Version: 6.00 Build 0)  -->
<svg version="1.1" id="Layer_1" xmlns="http://www.w3.org/2000/svg" xmlns:xlink="http://www.w3.org/1999/xlink" x="0px" y="0px"
	 viewBox="0 0 48 48" style="enable-background:new 0 0 48 48;" xml:space="preserve">
<style type="text/css">
	.st0{fill:#2F4F4F;}
</style>
<path class="st0" d="M40,42.6L26.9,29.4c-1,0.9-2.2,1.5-3.6,2s-2.8,0.7-4.3,0.7c-3.8,0-7-1.3-9.6-3.9s-3.9-5.8-3.9-9.5
	s1.3-6.9,3.9-9.5s5.8-3.9,9.5-3.9s6.9,1.3,9.5,3.9s3.9,5.8,3.9,9.5c0,1.5-0.2,2.9-0.7,4.2c-0.5,1.3-1.1,2.6-2.1,3.8L42.7,40L40,42.6
	z M18.8,28.4c2.7,0,5-0.9,6.9-2.8c1.9-1.9,2.8-4.2,2.8-6.9s-0.9-5-2.8-6.9c-1.9-1.9-4.2-2.8-6.9-2.8c-2.8,0-5.1,0.9-7,2.8
	C9.9,13.7,9,16,9,18.7s0.9,5,2.8,6.9C13.7,27.5,16,28.4,18.8,28.4z"/>
</svg>
