<?xml version="1.0" encoding="utf-8"?>
<!-- Generator: Adobe Illustrator 22.0.1, SVG Export Plug-In . SVG Version: 6.00 Build 0)  -->
<svg version="1.1" id="Layer_1" xmlns="http://www.w3.org/2000/svg" xmlns:xlink="http://www.w3.org/1999/xlink" x="0px" y="0px"
	 viewBox="0 0 48 48" style="enable-background:new 0 0 48 48;" xml:space="preserve">
<style type="text/css">
	.st0{fill:#FFFFFF;}
</style>
<path class="st0" d="M8.9,44.8c-1,0-1.9-0.4-2.6-1.1c-0.7-0.7-1.1-1.6-1.1-2.6V16.8c-0.6-0.2-1-0.6-1.4-1.2s-0.6-1.2-0.6-2V6.8
	c0-1,0.4-1.9,1.1-2.6s1.6-1.1,2.6-1.1h34.3c1,0,1.9,0.4,2.6,1.1s1.1,1.6,1.1,2.6v6.7c0,0.7-0.2,1.4-0.6,2c-0.4,0.6-0.9,1-1.4,1.2
	v24.4c0,1-0.4,1.9-1.1,2.6c-0.7,0.7-1.6,1.1-2.6,1.1C39.2,44.8,8.9,44.8,8.9,44.8z M8.9,17.2v24h30.4v-24H8.9z M6.8,13.6h34.4V6.8
	H6.8V13.6z M17.8,27.6h12.6v-3.7H17.8V27.6z"/>
</svg>
