<?xml version="1.0" encoding="utf-8"?>
<!-- Generator: Adobe Illustrator 22.0.1, SVG Export Plug-In . SVG Version: 6.00 Build 0)  -->
<svg version="1.1" id="Layer_1" xmlns="http://www.w3.org/2000/svg" xmlns:xlink="http://www.w3.org/1999/xlink" x="0px" y="0px"
	 viewBox="0 0 48 48" style="enable-background:new 0 0 48 48;" xml:space="preserve">
<style type="text/css">
	.st0{fill:#BE9FE1;}
</style>
<path class="st0" d="M8.9,44.8c-1,0-1.8-0.4-2.5-1.1c-0.7-0.7-1.1-1.6-1.1-2.5V9.8c0-1,0.4-1.8,1.1-2.5C7,6.5,7.9,6.1,8.9,6.1h2.4
	V3.2h3.9v2.9h17.6V3.2h3.9v2.9h2.5c1,0,1.8,0.4,2.5,1.1s1.1,1.6,1.1,2.5V41c0,1-0.4,1.8-1.1,2.5c-0.7,0.7-1.6,1.1-2.5,1.1H8.9V44.8z
	 M8.9,41.1h30.3V19H8.9V41.1z M8.9,15.3h30.3V9.8H8.9V15.3z M8.9,15.3V9.8V15.3z M24,28.1c-0.6,0-1.1-0.2-1.5-0.6s-0.6-0.9-0.6-1.5
	s0.2-1.1,0.6-1.5s0.9-0.6,1.5-0.6s1.1,0.2,1.5,0.6s0.6,0.9,0.6,1.5s-0.2,1.1-0.6,1.5S24.6,28.1,24,28.1z M16,28.1
	c-0.6,0-1.1-0.2-1.5-0.6s-0.6-0.9-0.6-1.5s0.2-1.1,0.6-1.5c0.4-0.4,0.9-0.6,1.5-0.6s1.1,0.2,1.5,0.6s0.6,0.9,0.6,1.5
	s-0.2,1.1-0.6,1.5S16.6,28.1,16,28.1z M32,28.1c-0.6,0-1.1-0.2-1.5-0.6s-0.6-0.9-0.6-1.5s0.2-1.1,0.6-1.5s0.9-0.6,1.5-0.6
	c0.6,0,1.1,0.2,1.5,0.6s0.6,0.9,0.6,1.5s-0.2,1.1-0.6,1.5S32.6,28.1,32,28.1z M24,36.2c-0.6,0-1.1-0.2-1.5-0.6s-0.6-0.9-0.6-1.5
	s0.2-1.1,0.6-1.5S23.4,32,24,32s1.1,0.2,1.5,0.6s0.6,0.9,0.6,1.5s-0.2,1.1-0.6,1.5C25.1,35.9,24.6,36.2,24,36.2z M16,36.2
	c-0.6,0-1.1-0.2-1.5-0.6s-0.6-0.9-0.6-1.5s0.2-1.1,0.6-1.5c0.4-0.4,0.9-0.6,1.5-0.6s1.1,0.2,1.5,0.6c0.4,0.4,0.6,0.9,0.6,1.5
	s-0.2,1.1-0.6,1.5C17.1,35.9,16.6,36.2,16,36.2z M32,36.2c-0.6,0-1.1-0.2-1.5-0.6s-0.6-0.9-0.6-1.5s0.2-1.1,0.6-1.5S31.4,32,32,32
	c0.6,0,1.1,0.2,1.5,0.6c0.4,0.4,0.6,0.9,0.6,1.5s-0.2,1.1-0.6,1.5C33.1,35.9,32.6,36.2,32,36.2z"/>
</svg>
