<?xml version="1.0" encoding="utf-8"?>
<!-- Generator: Adobe Illustrator 22.0.1, SVG Export Plug-In . SVG Version: 6.00 Build 0)  -->
<svg version="1.1" id="Layer_1" xmlns="http://www.w3.org/2000/svg" xmlns:xlink="http://www.w3.org/1999/xlink" x="0px" y="0px"
	 viewBox="0 0 48 48" style="enable-background:new 0 0 48 48;" xml:space="preserve">
<style type="text/css">
	.st0{fill:#BE9FE1;}
</style>
<path class="st0" d="M40.5,42.8c-4.1,0-8.3-1-12.5-2.9s-8.1-4.7-11.7-8.2S10,24.2,8.1,20S5.2,11.6,5.2,7.5c0-0.7,0.2-1.2,0.6-1.6
	s1-0.6,1.6-0.6h8c0.5,0,0.9,0.2,1.2,0.5C17,6,17.2,6.4,17.4,6.9l1.4,7c0,0.4,0,0.9-0.1,1.3c-0.1,0.4-0.2,0.7-0.4,0.9l-5.2,5.3
	c0.8,1.4,1.7,2.7,2.6,4s2,2.4,3.2,3.6c1.2,1.3,2.5,2.4,3.8,3.4s2.7,1.9,4.1,2.6l5.1-5.2c0.3-0.3,0.6-0.6,1-0.7S33.6,29,34,29l7,1.5
	c0.5,0.1,0.9,0.4,1.3,0.8s0.5,0.9,0.5,1.3v7.8c0,0.7-0.2,1.2-0.6,1.6C41.8,42.6,41.2,42.8,40.5,42.8z M11.3,18.1l3.9-3.9L14,8.8H8.9
	c0.1,1.4,0.3,2.9,0.6,4.3C9.9,14.6,10.5,16.3,11.3,18.1z M30.3,36.8c1.3,0.6,2.7,1.1,4.3,1.5c1.5,0.4,3.1,0.7,4.6,0.8l0,0V34
	L34,32.8L30.3,36.8z"/>
</svg>
