<?xml version="1.0" encoding="utf-8"?>
<!-- Generator: Adobe Illustrator 22.0.1, SVG Export Plug-In . SVG Version: 6.00 Build 0)  -->
<svg version="1.1" id="Layer_1" xmlns="http://www.w3.org/2000/svg" xmlns:xlink="http://www.w3.org/1999/xlink" x="0px" y="0px"
	 viewBox="0 0 48 48" style="enable-background:new 0 0 48 48;" xml:space="preserve">
<style type="text/css">
	.st0{fill:#BE9FE1;}
</style>
<path class="st0" d="M0.5,41.5V36c0-1.3,0.3-2.5,0.9-3.5c0.6-1,1.5-1.8,2.7-2.3c2.5-1.1,4.8-1.9,6.8-2.4s4.2-0.8,6.3-0.8
	s4.3,0.3,6.3,0.8s4.3,1.3,6.8,2.4c1.1,0.5,2,1.3,2.7,2.3c0.7,1,1,2.2,1,3.5v5.5H0.5z M37.1,41.5V36c0-2.1-0.5-3.9-1.6-5.4
	c-1-1.5-2.5-2.7-4.3-3.7c2.5,0.3,4.9,0.7,7,1.3c2.2,0.6,4,1.2,5.4,1.9c1.2,0.7,2.1,1.5,2.8,2.5c0.7,1,1,2.1,1,3.3v5.5H37.1z
	 M17.2,23.8c-2.4,0-4.4-0.8-5.9-2.3S9,18,9,15.6c0-2.4,0.8-4.4,2.3-5.9c1.5-1.5,3.5-2.3,5.9-2.3c2.4,0,4.4,0.8,5.9,2.3
	c1.5,1.5,2.3,3.5,2.3,5.9c0,2.4-0.8,4.4-2.3,5.9C21.6,23,19.6,23.8,17.2,23.8z M37.3,15.5c0,2.4-0.8,4.4-2.3,5.9s-3.5,2.3-5.9,2.3
	c-0.5,0-1,0-1.6-0.1c-0.6-0.1-1.1-0.2-1.5-0.4c0.8-0.9,1.5-2.1,1.9-3.4c0.4-1.3,0.6-2.8,0.6-4.4c0-1.6-0.2-3-0.6-4.3
	c-0.4-1.2-1-2.4-1.9-3.5c0.5-0.1,1-0.2,1.6-0.3c0.6-0.1,1.1-0.1,1.5-0.1c2.4,0,4.4,0.8,5.9,2.3C36.5,11.2,37.3,13.2,37.3,15.5z
	 M4.1,37.8h26.2V36c0-0.5-0.1-1-0.4-1.5c-0.3-0.5-0.6-0.8-1-0.9c-2.5-1.1-4.5-1.8-6.3-2.2s-3.5-0.6-5.4-0.6s-3.7,0.2-5.5,0.6
	s-3.8,1.1-6.2,2.2c-0.4,0.2-0.7,0.5-1,0.9c-0.3,0.5-0.4,1-0.4,1.5V37.8z M17.2,20.1c1.3,0,2.4-0.4,3.3-1.3s1.3-1.9,1.3-3.3
	s-0.4-2.4-1.3-3.3s-2-1.3-3.3-1.3c-1.3,0-2.4,0.4-3.2,1.3c-0.9,0.9-1.3,2-1.3,3.3c0,1.3,0.4,2.4,1.3,3.2
	C14.8,19.7,15.9,20.1,17.2,20.1z"/>
</svg>
