<?xml version="1.0" encoding="utf-8"?>
<!-- Generator: Adobe Illustrator 22.0.1, SVG Export Plug-In . SVG Version: 6.00 Build 0)  -->
<svg version="1.1" id="Layer_1" xmlns="http://www.w3.org/2000/svg" xmlns:xlink="http://www.w3.org/1999/xlink" x="0px" y="0px"
	 viewBox="0 0 48 48" style="enable-background:new 0 0 48 48;" xml:space="preserve">
<style type="text/css">
	.st0{fill:#BE9FE1;}
</style>
<path class="st0" d="M10.9,45.1c-1,0-1.9-0.4-2.6-1.1s-1.1-1.6-1.1-2.6V19.5c0-1,0.4-1.9,1.1-2.6s1.6-1.1,2.6-1.1h2.9V11
	c0-2.9,1-5.3,3-7.3s4.4-3,7.2-3s5.2,1,7.2,3s3,4.4,3,7.3v4.8h2.9c1,0,1.9,0.4,2.6,1.1c0.7,0.7,1.1,1.6,1.1,2.6v21.9
	c0,1-0.4,1.9-1.1,2.6c-0.7,0.7-1.6,1.1-2.6,1.1H10.9z M10.9,41.5h26.2v-22H10.9V41.5z M24,34.8c1.2,0,2.1-0.4,3-1.2
	c0.8-0.8,1.2-1.8,1.2-2.9s-0.4-2.1-1.2-3c-0.8-0.9-1.8-1.3-3-1.3s-2.1,0.4-3,1.3c-0.8,0.9-1.2,1.9-1.2,3s0.4,2.1,1.2,2.9
	C21.9,34.3,22.9,34.8,24,34.8z M17.5,15.9h13.1v-4.8c0-1.8-0.6-3.4-1.9-4.7s-2.8-1.9-4.6-1.9s-3.4,0.6-4.6,1.9
	c-1.3,1.3-1.9,2.8-1.9,4.7v4.8H17.5z M10.9,41.5v-22V41.5z"/>
</svg>
