<?xml version="1.0" encoding="utf-8"?>
<!-- Generator: Adobe Illustrator 22.0.1, SVG Export Plug-In . SVG Version: 6.00 Build 0)  -->
<svg version="1.1" id="Layer_1" xmlns="http://www.w3.org/2000/svg" xmlns:xlink="http://www.w3.org/1999/xlink" x="0px" y="0px"
	 viewBox="0 0 48 48" style="enable-background:new 0 0 48 48;" xml:space="preserve">
<style type="text/css">
	.st0{fill:#BE9FE1;}
</style>
<path class="st0" d="M6.8,40.8c-1,0-1.8-0.4-2.5-1.1c-0.7-0.7-1.1-1.6-1.1-2.5V10.9c0-1,0.4-1.8,1.1-2.5C5,7.6,5.9,7.2,6.8,7.2h34.3
	c1,0,1.8,0.4,2.5,1.1s1.1,1.6,1.1,2.5V37c0,1-0.4,1.8-1.1,2.5c-0.7,0.7-1.6,1.1-2.5,1.1H6.8V40.8z M24,25.4L6.8,14.3v22.8h34.3V14.3
	L24,25.4z M24,21.9l17.2-11H6.9L24,21.9z M6.7,14.3v-3.4v26.2h0.2H6.7V14.3z"/>
</svg>
