<?xml version="1.0" encoding="utf-8"?>
<!-- Generator: Adobe Illustrator 22.0.1, SVG Export Plug-In . SVG Version: 6.00 Build 0)  -->
<svg version="1.1" id="Layer_1" xmlns="http://www.w3.org/2000/svg" xmlns:xlink="http://www.w3.org/1999/xlink" x="0px" y="0px"
	 viewBox="0 0 48 48" style="enable-background:new 0 0 48 48;" xml:space="preserve">
<style type="text/css">
	.st0{fill:#BE9FE1;}
</style>
<path class="st0" d="M24,23.6c-2.4,0-4.3-0.7-5.8-2.2S16,18,16,15.6s0.7-4.3,2.2-5.8s3.4-2.2,5.8-2.2s4.3,0.7,5.8,2.2
	s2.2,3.4,2.2,5.8s-0.7,4.3-2.2,5.8S26.4,23.6,24,23.6z M7.3,41.5V36c0-1.4,0.3-2.5,1-3.5s1.5-1.7,2.6-2.2c2.3-1.1,4.5-1.9,6.7-2.4
	c2.1-0.5,4.3-0.8,6.5-0.8s4.3,0.3,6.5,0.8s4.3,1.3,6.6,2.4c1.1,0.5,2,1.3,2.7,2.2c0.7,1,1,2.1,1,3.5v5.5H7.3z M10.9,37.8h26.2V36
	c0-0.5-0.1-1-0.4-1.5c-0.3-0.5-0.6-0.8-1-1c-2.2-1-4.2-1.8-6-2.2c-1.8-0.4-3.7-0.6-5.6-0.6s-3.8,0.2-5.7,0.6s-3.8,1.1-6,2.2
	c-0.4,0.2-0.8,0.5-1.1,1s-0.4,1-0.4,1.5C10.9,36,10.9,37.8,10.9,37.8z M24,20c1.3,0,2.3-0.4,3.1-1.3c0.8-0.8,1.3-1.9,1.3-3.2
	s-0.4-2.3-1.3-3.1c-0.8-0.8-1.9-1.3-3.1-1.3c-1.3,0-2.3,0.4-3.1,1.3c-0.8,0.8-1.3,1.9-1.3,3.1s0.4,2.3,1.3,3.2S22.7,20,24,20z"/>
</svg>
